<svg width="110" height="36" viewBox="0 0 110 36" fill="none" xmlns="http://www.w3.org/2000/svg">
<path fill-rule="evenodd" clip-rule="evenodd" d="M108.359 1.25477H96.7599L94.3694 14.2536C96.1011 13.5943 97.9969 13.0795 99.7919 13.0795C101.921 13.0795 103.888 13.6666 105.424 15.1906C106.923 16.677 107.559 18.5654 107.559 20.6591C107.559 22.9928 106.846 25.0778 105.24 26.7782C103.719 28.389 101.846 29.2536 99.6308 29.2536C98.5089 29.2536 97.433 29.0078 96.4205 28.5162C95.4568 28.0477 94.6081 27.4028 93.9551 26.5411C93.3884 25.795 93.0231 24.9187 92.7872 24.0136H91.1907C91.579 25.7747 92.4161 27.2958 93.7912 28.5364C95.3935 29.9795 97.3007 30.6012 99.441 30.6012C101.204 30.6012 102.922 30.2542 104.467 29.378C105.939 28.5451 107.058 27.3537 107.875 25.8673C108.744 24.2912 109.144 22.5879 109.144 20.7892C109.144 18.3022 108.445 16.0668 106.702 14.2565C105.007 12.5012 102.913 11.7319 100.491 11.7319C99.3777 11.7319 98.2443 11.9604 97.1799 12.2756L96.012 12.6197L97.853 2.59948H108.353V1.25477H108.359ZM78.8296 1.93146C80.5987 1.93146 82.3391 2.37102 83.5962 3.6926C84.6175 4.76836 85.2561 6.05813 85.2561 7.55899C85.2561 8.61163 84.9425 9.59485 84.419 10.5C83.8523 11.4774 83.0698 12.2409 82.086 12.7903C81.1079 13.3369 80.0493 13.6174 78.9303 13.6174C77.1841 13.6174 75.6652 12.9928 74.388 11.7955C73.1913 10.6735 72.4204 9.28832 72.4204 7.61972C72.4204 5.95113 73.0877 4.65847 74.2729 3.58271C75.5502 2.42308 77.1237 1.92857 78.8325 1.92857L78.8296 1.93146ZM69.4631 21.2663H70.9906C71.2265 19.6296 72.0263 18.2328 73.246 17.0587C74.8281 15.5347 76.7641 14.8378 78.9475 14.8378C81.1309 14.8378 82.8771 15.5492 84.396 17.0009C85.8199 18.3629 86.6714 20.0228 86.6714 22.0153C86.6714 24.0078 85.912 25.688 84.5196 27.0876C83.2712 28.3427 81.7178 28.9818 80.0119 29.1813V30.5434C82.3765 30.3323 84.5053 29.485 86.0989 27.6053C87.4855 25.9714 88.1788 24.1003 88.1788 21.9517C88.1788 20.4971 87.8048 19.1553 86.9821 17.9552C86.0155 16.5411 84.4046 15.4971 82.9001 14.7452L81.6113 14.1003L82.8771 13.4121C84.0105 12.7961 85.0892 11.9777 85.817 10.8933C86.4672 9.92163 86.7606 8.84297 86.7606 7.67467C86.7606 6.40804 86.3981 5.24263 85.7451 4.16108C85.049 3.01012 84.0881 2.131 82.9087 1.4919C81.6689 0.818103 80.3456 0.5 78.9332 0.5C77.5207 0.5 76.1083 0.820995 74.8224 1.4919C73.6055 2.12522 72.6102 2.99855 71.8795 4.16397C71.2265 5.20792 70.8267 6.35309 70.8267 7.5937C70.8267 8.77068 71.1661 9.83777 71.8047 10.8239C72.5412 11.9633 73.6343 12.7932 74.8224 13.4092L76.1313 14.0888L74.8138 14.7481C73.2661 15.5231 71.6034 16.6105 70.6282 18.0824C69.9781 19.0628 69.5955 20.1241 69.466 21.2663H69.4631Z" fill="#E61E2B"/>
<path d="M73.3207 32.6372L68.2951 23.9414H70.933L74.4742 30.5146L77.9665 23.9414H80.6073L75.6479 32.6227V35.5001H73.3178V32.6372H73.3207ZM59.5472 25.9975H55.3041V23.9443H66.1232V25.9975H61.8801V35.5001H59.5472V25.9975ZM43.619 23.9443H45.952V33.444H52.6374V35.5001H43.619V23.9414V23.9443ZM36.3525 31.625L33.8671 26.3763L31.4478 31.625H36.3554H36.3525ZM32.61 23.9443H35.081L40.6417 35.503H38.1936L37.2731 33.5568H30.5589L29.6671 35.503H27.2105L32.61 23.9443ZM14.9645 23.9443H24.7567V25.9975H17.2974V28.3052H23.9023V30.237H17.2974V33.4527H24.9091V35.503H14.9645V23.9443ZM5.90869 30.1849C6.3517 30.1849 6.73717 30.1328 7.06511 30.0287C7.39593 29.9246 7.67497 29.78 7.89647 29.5921C8.12085 29.4041 8.2877 29.1785 8.39989 28.9067C8.5092 28.6378 8.56674 28.3399 8.56674 28.0073C8.56674 27.3625 8.34523 26.8651 7.9051 26.5094C7.46209 26.1566 6.79758 25.9802 5.91157 25.9802H2.33586V30.182H5.91157L5.90869 30.1849ZM0 23.9443H5.84828C6.73142 23.9443 7.49661 24.0339 8.14674 24.2219C8.79112 24.407 9.32905 24.673 9.7548 25.0258C10.1805 25.3729 10.4999 25.8009 10.7099 26.304C10.917 26.8101 11.0205 27.3769 11.0205 28.0131C11.0205 28.4411 10.9716 28.8518 10.8681 29.2364C10.7645 29.6239 10.6063 29.9796 10.3934 30.3035C10.1806 30.6302 9.91014 30.9194 9.58796 31.1739C9.26289 31.4255 8.88605 31.6395 8.44879 31.8043L10.9486 35.503H8.09496L5.93458 32.2179H5.86554L2.33586 32.2092V35.5001H0V23.9414V23.9443Z" fill="black"/>
</svg>
