<svg width="184" height="59" viewBox="0 0 184 59" fill="none"
    xmlns="http://www.w3.org/2000/svg">
    <path fill-rule="evenodd" clip-rule="evenodd" d="M182.661 1.27233H163.109L159.08 23.1847C161.999 22.0732 165.194 21.2055 168.22 21.2055C171.809 21.2055 175.126 22.1951 177.715 24.7641C180.242 27.2698 181.313 30.453 181.313 33.9824C181.313 37.9164 180.111 41.4311 177.405 44.2975C174.84 47.0128 171.683 48.4704 167.949 48.4704C166.058 48.4704 164.244 48.056 162.537 47.2273C160.913 46.4376 159.482 45.3505 158.381 43.8978C157.426 42.6401 156.81 41.163 156.412 39.6372H153.721C154.376 42.606 155.787 45.1701 158.105 47.2614C160.806 49.694 164.021 50.742 167.629 50.742C170.601 50.742 173.496 50.1571 176.1 48.68C178.583 47.2761 180.47 45.2676 181.847 42.762C183.311 40.1052 183.985 37.2339 183.985 34.2018C183.985 30.0094 182.807 26.2412 179.868 23.1895C177.012 20.2305 173.482 18.9338 169.399 18.9338C167.522 18.9338 165.611 19.3189 163.817 19.8503L161.848 20.4304L164.952 3.53912H182.652V1.27233H182.661ZM132.884 2.41304C135.866 2.41304 138.8 3.15401 140.919 5.38181C142.641 7.19524 143.717 9.36941 143.717 11.8994C143.717 13.6739 143.189 15.3313 142.306 16.8571C141.351 18.5048 140.032 19.7918 138.373 20.718C136.724 21.6393 134.94 22.1122 133.054 22.1122C130.11 22.1122 127.55 21.0592 125.397 19.0411C123.379 17.1496 122.08 14.8146 122.08 12.0018C122.08 9.18904 123.205 7.01 125.203 5.19656C127.356 3.24176 130.008 2.40816 132.889 2.40816L132.884 2.41304ZM117.095 35.0061H119.67C120.067 32.247 121.415 29.8924 123.471 27.9132C126.139 25.3442 129.402 24.1694 133.083 24.1694C136.763 24.1694 139.707 25.3686 142.267 27.8158C144.668 30.1118 146.103 32.9099 146.103 36.2687C146.103 39.6274 144.823 42.4597 142.476 44.8191C140.371 46.9348 137.753 48.0121 134.877 48.3485V50.6446C138.863 50.2887 142.451 48.8604 145.138 45.6917C147.475 42.9375 148.644 39.7834 148.644 36.1614C148.644 33.7094 148.014 31.4475 146.627 29.4244C144.997 27.0407 142.282 25.2808 139.746 24.0134L137.573 22.9263L139.707 21.7661C141.617 20.7278 143.436 19.3482 144.663 17.5201C145.759 15.8822 146.253 14.0639 146.253 12.0944C146.253 9.95927 145.642 7.99471 144.541 6.17153C143.368 4.23135 141.748 2.7494 139.76 1.67206C137.67 0.536231 135.439 0 133.058 0C130.677 0 128.296 0.541106 126.129 1.67206C124.078 2.73965 122.4 4.21185 121.168 6.1764C120.067 7.93621 119.393 9.86664 119.393 11.9579C119.393 13.942 119.965 15.7408 121.042 17.4031C122.283 19.3238 124.126 20.7229 126.129 21.7612L128.335 22.9068L126.114 24.0183C123.505 25.3247 120.703 27.1576 119.059 29.6389C117.963 31.2915 117.318 33.0806 117.1 35.0061H117.095Z" fill="#E61E2B"/>
    <path d="M123.598 54.174L115.126 39.5154H119.573L125.542 50.5959L131.429 39.5154H135.881L127.521 54.1496V59.0001H123.593V54.174H123.598ZM100.38 42.9814H93.2269V39.5203H111.465V42.9814H104.312V59.0001H100.38V42.9814ZM73.5292 39.5203H77.4619V55.5341H88.7316V59.0001H73.5292V39.5154V39.5203ZM61.28 52.4678L57.0902 43.62L53.012 52.4678H61.2848H61.28ZM54.9711 39.5203H59.1366L68.5102 59.0049H64.3835L62.8318 55.7242H51.5136L50.0103 59.0049H45.8691L54.9711 39.5203ZM25.2258 39.5203H41.7327V42.9814H29.1586V46.8715H40.2924V50.1279H29.1586V55.5487H41.9897V59.0049H25.2258V39.5203ZM9.96036 50.0401C10.7071 50.0401 11.3569 49.9524 11.9098 49.7769C12.4674 49.6014 12.9378 49.3577 13.3112 49.0408C13.6894 48.7239 13.9707 48.3437 14.1598 47.8855C14.3441 47.4321 14.4411 46.93 14.4411 46.3694C14.4411 45.2823 14.0677 44.4438 13.3257 43.8442C12.579 43.2495 11.4588 42.9521 9.96521 42.9521H3.93759V50.0353H9.96521L9.96036 50.0401ZM0 39.5203H9.85853C11.3472 39.5203 12.6371 39.6714 13.7331 39.9882C14.8193 40.3002 15.7261 40.7487 16.4438 41.3434C17.1615 41.9284 17.6998 42.6499 18.0538 43.4981C18.4029 44.3512 18.5775 45.3067 18.5775 46.3791C18.5775 47.1006 18.495 47.7928 18.3205 48.4412C18.1459 49.0944 17.8792 49.694 17.5203 50.24C17.1615 50.7909 16.7057 51.2783 16.1626 51.7073C15.6146 52.1314 14.9793 52.4922 14.2423 52.77L18.4563 59.0049H13.6458L10.004 53.4671H9.88762L3.93759 53.4525V59.0001H0V39.5154V39.5203Z" fill="white"/>
</svg>
